{
	"accessors" : 
	[
		{
			"bufferView" : 2,
			"byteOffset" : 0,
			"componentType" : 5126,
			"count" : 16728,
			"max" : 
			[
				1,
				1,
				1,
				1
			],
			"min" : 
			[
				0.006584956776350737,
				0.006584956776350737,
				0,
				1
			],
			"name" : "accessor_color_m0-PolyPaper21_-993290",
			"type" : "VEC4"
		},
		{
			"bufferView" : 2,
			"byteOffset" : 267648,
			"componentType" : 5126,
			"count" : 2280,
			"max" : 
			[
				1,
				0.835527777671814,
				0.3488648533821106,
				1
			],
			"min" : 
			[
				0.006584956776350737,
				0.006584956776350737,
				0.006584956776350737,
				1
			],
			"name" : "accessor_color_m1-PolyPaper16_-993296",
			"type" : "VEC4"
		},
		{
			"bufferView" : 0,
			"byteOffset" : 0,
			"componentType" : 5123,
			"count" : 26412,
			"max" : 
			[
				16727
			],
			"min" : 
			[
				0
			],
			"name" : "accessor_indices_0_m0-PolyPaper21_-993290",
			"type" : "SCALAR"
		},
		{
			"bufferView" : 0,
			"byteOffset" : 52824,
			"componentType" : 5123,
			"count" : 4008,
			"max" : 
			[
				2279
			],
			"min" : 
			[
				0
			],
			"name" : "accessor_indices_0_m1-PolyPaper16_-993296",
			"type" : "SCALAR"
		},
		{
			"bufferView" : 1,
			"byteOffset" : 200736,
			"componentType" : 5126,
			"count" : 16728,
			"max" : 
			[
				0.9999554,
				0.999908,
				0.9999884999999999
			],
			"min" : 
			[
				-0.9999554,
				-0.999908,
				-0.9999884
			],
			"name" : "accessor_normal_m0-PolyPaper21_-993290",
			"type" : "VEC3"
		},
		{
			"bufferView" : 1,
			"byteOffset" : 428832,
			"componentType" : 5126,
			"count" : 2280,
			"max" : 
			[
				0.9996499,
				0.9999001,
				0.9997709
			],
			"min" : 
			[
				-0.9996496,
				-0.9999,
				-0.9997708
			],
			"name" : "accessor_normal_m1-PolyPaper16_-993296",
			"type" : "VEC3"
		},
		{
			"bufferView" : 1,
			"byteOffset" : 0,
			"componentType" : 5126,
			"count" : 16728,
			"max" : 
			[
				2.65444,
				1.929937,
				0.3083983
			],
			"min" : 
			[
				-1.717197,
				0.5957958,
				-0.4577571
			],
			"name" : "accessor_position_m0-PolyPaper21_-993290",
			"type" : "VEC3"
		},
		{
			"bufferView" : 1,
			"byteOffset" : 401472,
			"componentType" : 5126,
			"count" : 2280,
			"max" : 
			[
				-0.5369009,
				1.75865,
				0.0231779
			],
			"min" : 
			[
				-1.201879,
				1.156461,
				-0.2176991
			],
			"name" : "accessor_position_m1-PolyPaper16_-993296",
			"type" : "VEC3"
		}
	],
	"asset" : 
	{
		"copyright" : "Unknown",
		"generator" : "glTF 1-to-2 Upgrader for Google Blocks",
		"version" : "2.0"
	},
	"bufferViews" : 
	[
		{
			"buffer" : 0,
			"byteLength" : 60840,
			"byteOffset" : 0,
			"name" : "ushortBufferView",
			"target" : 34963
		},
		{
			"buffer" : 0,
			"byteLength" : 456192,
			"byteOffset" : 60840,
			"byteStride" : 12,
			"name" : "vec3BufferView",
			"target" : 34962
		},
		{
			"buffer" : 0,
			"byteLength" : 304128,
			"byteOffset" : 517032,
			"byteStride" : 16,
			"name" : "vec4BufferView",
			"target" : 34962
		}
	],
	"buffers" : 
	[
		{
			"byteLength" : 821160,
			"name" : "model",
			"uri" : "model.bin"
		}
	],
	"materials" : 
	[
		{
			"alphaMode" : "OPAQUE",
			"doubleSided" : false,
			"name" : "BlocksPaper",
			"pbrMetallicRoughness" : 
			{
				"baseColorFactor" : 
				[
					1,
					1,
					1,
					1
				],
				"metallicFactor" : 0,
				"roughnessFactor" : 0.6
			}
		},
		{
			"alphaMode" : "BLEND",
			"doubleSided" : false,
			"name" : "BlocksGlass",
			"pbrMetallicRoughness" : 
			{
				"baseColorFactor" : 
				[
					0.2,
					0.2,
					1,
					0.3
				],
				"metallicFactor" : 1,
				"roughnessFactor" : 0.4
			}
		},
		{
			"alphaMode" : "OPAQUE",
			"doubleSided" : true,
			"name" : "BlocksGem",
			"pbrMetallicRoughness" : 
			{
				"baseColorFactor" : 
				[
					1,
					0.4,
					1,
					1
				],
				"metallicFactor" : 0,
				"roughnessFactor" : 0.1
			}
		}
	],
	"meshes" : 
	[
		{
			"name" : "mesh_m0-PolyPaper21_-993290",
			"primitives" : 
			[
				{
					"attributes" : 
					{
						"COLOR_0" : 0,
						"NORMAL" : 4,
						"POSITION" : 6
					},
					"indices" : 2,
					"material" : 0,
					"mode" : 4
				}
			]
		},
		{
			"name" : "mesh_m1-PolyPaper16_-993296",
			"primitives" : 
			[
				{
					"attributes" : 
					{
						"COLOR_0" : 1,
						"NORMAL" : 5,
						"POSITION" : 7
					},
					"indices" : 3,
					"material" : 0,
					"mode" : 4
				}
			]
		}
	],
	"nodes" : 
	[
		{
			"matrix" : 
			[
				1,
				0,
				0,
				0,
				0,
				1,
				0,
				0,
				0,
				0,
				1,
				0,
				0,
				0,
				0,
				1
			],
			"mesh" : 0,
			"name" : "node_MeshObject-1150365696-PolyPaper21"
		},
		{
			"matrix" : 
			[
				1,
				0,
				0,
				0,
				0,
				1,
				0,
				0,
				0,
				0,
				1,
				0,
				0,
				0,
				0,
				1
			],
			"mesh" : 1,
			"name" : "node_MeshObject-578286592-PolyPaper16"
		}
	],
	"scene" : 0,
	"scenes" : 
	[
		{
			"extras" : {},
			"name" : "defaultScene",
			"nodes" : 
			[
				0,
				1
			]
		}
	]
}